<svg width="99" height="44" viewBox="0 0 99 44" fill="none" xmlns="http://www.w3.org/2000/svg">
<g filter="url(#filter0_d_4_2)">
<path d="M26.5 3.816C25.684 4.008 25 4.104 24.448 4.104C23.896 4.104 23.368 4.068 22.864 3.996C22.12 4.884 21.448 6.072 20.848 7.56C20.248 9.048 19.792 10.38 19.48 11.556C19.192 12.732 18.868 14.172 18.508 15.876C16.684 24.564 14.86 30.732 13.036 34.38C11.836 34.74 10.348 35.088 8.57201 35.424C10.972 31.32 12.916 26.556 14.404 21.132H6.95201C5.05601 14.988 4.07201 8.988 4.00001 3.132H14.512C14.008 5.364 13.756 7.74 13.756 10.26C13.756 12.756 14.164 15.612 14.98 18.828C15.148 18.18 15.436 17.052 15.844 15.444C16.252 13.812 16.552 12.648 16.744 11.952C16.936 11.256 17.224 10.272 17.608 9C18.016 7.728 18.376 6.78 18.688 6.156C19.024 5.508 19.432 4.788 19.912 3.996C20.776 2.58 21.916 1.62 23.332 1.116C23.74 0.996002 24.568 0.876002 25.816 0.756002C27.064 0.612003 27.964 0.360003 28.516 3.33786e-06C27.868 1.488 27.196 2.76 26.5 3.816ZM45.8964 20.844V21.132H37.5444C37.4484 19.812 37.2444 18.396 36.9324 16.884C35.2524 18.564 33.5724 19.98 31.8924 21.132H23.5044C23.3364 20.148 23.2524 18.852 23.2524 17.244C23.2524 15.612 23.4924 13.98 23.9724 12.348C25.7004 11.844 27.3564 10.992 28.9404 9.792C30.5484 8.592 31.7124 7.296 32.4324 5.904C31.7604 4.848 31.0764 3.924 30.3804 3.132H42.3324C44.7084 8.34 45.8964 14.244 45.8964 20.844ZM36.2844 14.256C35.6844 12.192 34.8684 10.176 33.8364 8.208C32.7084 11.52 32.0604 14.652 31.8924 17.604C33.6684 16.644 35.1324 15.528 36.2844 14.256ZM68.9367 9.396L68.9007 10.62C66.9807 11.652 64.5807 12.456 61.7007 13.032C63.7647 13.584 65.7567 13.86 67.6767 13.86H68.4327C69.7527 15.804 70.6047 18.228 70.9887 21.132H61.6647C61.4247 19.452 60.9327 18.012 60.1887 16.812C59.4687 15.588 58.5807 14.76 57.5247 14.328C57.5007 14.736 57.4887 15.552 57.4887 16.776C57.4887 18 57.5607 19.452 57.7047 21.132H49.8567C49.1607 17.652 48.8127 14.424 48.8127 11.448C48.8127 8.448 48.9807 5.676 49.3167 3.132H68.1087C68.6607 5.556 68.9367 7.644 68.9367 9.396ZM58.2807 5.544C57.9927 7.656 57.7767 9.732 57.6327 11.772C58.9527 11.58 60.0327 11.112 60.8727 10.368C60.4167 8.76 59.5527 7.152 58.2807 5.544ZM76.3907 21.024C74.2547 18.288 73.1867 15.48 73.1867 12.6C73.1867 9.72 74.3867 7.284 76.7867 5.292C79.1867 3.3 82.2587 2.304 86.0027 2.304C87.9947 2.304 89.9747 2.604 91.9427 3.204C93.6707 5.388 94.5347 7.728 94.5347 10.224C94.5347 13.368 93.2507 16.104 90.6827 18.432C88.1147 20.76 85.0067 21.924 81.3587 21.924C79.7987 21.924 78.1427 21.624 76.3907 21.024ZM81.8627 5.436C81.0227 6.876 80.6027 8.568 80.6027 10.512C80.6027 12.456 81.0227 14.256 81.8627 15.912C82.7267 17.544 83.9027 18.72 85.3907 19.44C86.5187 18 87.0827 16.332 87.0827 14.436C87.0827 12.54 86.6147 10.776 85.6787 9.144C84.7667 7.512 83.4947 6.276 81.8627 5.436Z" fill="white"/>
</g>
<defs>
<filter id="filter0_d_4_2" x="0" y="0" width="98.5347" height="43.424" filterUnits="userSpaceOnUse" color-interpolation-filters="sRGB">
<feFlood flood-opacity="0" result="BackgroundImageFix"/>
<feColorMatrix in="SourceAlpha" type="matrix" values="0 0 0 0 0 0 0 0 0 0 0 0 0 0 0 0 0 0 127 0" result="hardAlpha"/>
<feOffset dy="4"/>
<feGaussianBlur stdDeviation="2"/>
<feComposite in2="hardAlpha" operator="out"/>
<feColorMatrix type="matrix" values="0 0 0 0 0 0 0 0 0 0 0 0 0 0 0 0 0 0 0.25 0"/>
<feBlend mode="normal" in2="BackgroundImageFix" result="effect1_dropShadow_4_2"/>
<feBlend mode="normal" in="SourceGraphic" in2="effect1_dropShadow_4_2" result="shape"/>
</filter>
</defs>
</svg>
