<svg width="46" height="19" viewBox="0 0 46 19" fill="none" xmlns="http://www.w3.org/2000/svg">
<g filter="url(#filter0_d_5_8)">
<path d="M8.592 5.208L5.184 0.24H6.072L8.064 3.144L10.056 0.24H10.944L8.52 3.816L9.024 4.56L12 0.24H12.888L9.48 5.208H8.592ZM6.648 5.208L3.24 0.24H4.128L7.536 5.208H6.648ZM8.496 9.888V5.784H9.216V9.888H8.496ZM6.912 9.888V5.784H7.632V9.888H6.912ZM13.6153 9.888L17.1193 0.24H17.8873L21.3913 9.888H20.6233L17.5033 1.296L17.0473 2.544L19.7113 9.888H18.9433L18.5353 8.736H14.7913L14.3833 9.888H13.6153ZM11.9353 9.888L15.4393 0.24H16.2073L12.7033 9.888H11.9353ZM15.6313 6.432H17.6953L16.6633 3.6L15.6313 6.432ZM15.0553 8.016H18.2713L17.9593 7.152H15.3673L15.0553 8.016ZM24.1768 9.888V0.24H27.9448C28.7288 0.256 29.4008 0.528 29.9608 1.056C30.5208 1.568 30.8008 2.28 30.8008 3.192C30.8008 3.896 30.6248 4.488 30.2728 4.968C29.9368 5.448 29.4968 5.784 28.9528 5.976L30.6328 9.888H29.8408L28.2568 6.12C28.1288 6.136 28.0248 6.144 27.9448 6.144H27.3208L28.9048 9.888H28.1128L26.5288 6.144H24.8968V9.888H24.1768ZM22.5928 9.888V0.24H23.3128V9.888H22.5928ZM27.8968 0.96H24.8968V1.824H27.9448C28.3288 1.84 28.6328 1.976 28.8568 2.232C29.0968 2.472 29.2168 2.792 29.2168 3.192C29.2168 3.592 29.0968 3.92 28.8568 4.176C28.6168 4.432 28.3128 4.56 27.9448 4.56H24.8968V5.424H27.8968C28.5048 5.424 29.0168 5.24 29.4328 4.872C29.8648 4.488 30.0808 3.928 30.0808 3.192C30.0808 2.456 29.8648 1.904 29.4328 1.536C29.0168 1.152 28.5048 0.96 27.8968 0.96ZM27.8968 2.544H24.8968V3.84H27.8968C28.0728 3.84 28.2168 3.792 28.3288 3.696C28.4408 3.584 28.4968 3.416 28.4968 3.192C28.4968 2.968 28.4408 2.808 28.3288 2.712C28.2168 2.6 28.0728 2.544 27.8968 2.544ZM41.9394 5.064C41.9394 4.232 41.7394 3.496 41.3394 2.856C40.9554 2.2 40.4194 1.68 39.7314 1.296C39.0594 0.912 38.2994 0.72 37.4514 0.72C36.6034 0.72 35.8354 0.912 35.1474 1.296C34.4754 1.68 33.9394 2.2 33.5394 2.856C33.1554 3.496 32.9634 4.232 32.9634 5.064C32.9634 5.88 33.1554 6.616 33.5394 7.272C33.9394 7.928 34.4754 8.448 35.1474 8.832C35.8354 9.216 36.6034 9.408 37.4514 9.408C38.2994 9.408 39.0594 9.216 39.7314 8.832C40.4194 8.448 40.9554 7.928 41.3394 7.272C41.7394 6.616 41.9394 5.88 41.9394 5.064ZM40.3554 5.064C40.3554 4.264 40.0754 3.608 39.5154 3.096C38.9714 2.568 38.2834 2.304 37.4514 2.304C36.6194 2.304 35.9234 2.568 35.3634 3.096C34.8194 3.608 34.5474 4.264 34.5474 5.064C34.5474 5.848 34.8194 6.504 35.3634 7.032C35.9234 7.56 36.6194 7.824 37.4514 7.824C38.2834 7.824 38.9714 7.56 39.5154 7.032C40.0754 6.504 40.3554 5.848 40.3554 5.064ZM37.4514 8.544C36.7634 8.544 36.1474 8.392 35.6034 8.088C35.0594 7.784 34.6274 7.368 34.3074 6.84C33.9874 6.312 33.8274 5.72 33.8274 5.064C33.8274 4.408 33.9874 3.816 34.3074 3.288C34.6274 2.76 35.0594 2.344 35.6034 2.04C36.1474 1.736 36.7634 1.584 37.4514 1.584C38.1394 1.584 38.7554 1.736 39.2994 2.04C39.8434 2.344 40.2754 2.76 40.5954 3.288C40.9154 3.816 41.0754 4.408 41.0754 5.064C41.0754 5.72 40.9154 6.312 40.5954 6.84C40.2754 7.368 39.8434 7.784 39.2994 8.088C38.7554 8.392 38.1394 8.544 37.4514 8.544ZM37.4514 10.128C36.4754 10.128 35.5954 9.904 34.8114 9.456C34.0274 9.008 33.4034 8.4 32.9394 7.632C32.4754 6.864 32.2434 6.008 32.2434 5.064C32.2434 4.104 32.4754 3.248 32.9394 2.496C33.4034 1.728 34.0274 1.12 34.8114 0.672C35.5954 0.224 36.4754 -2.38419e-07 37.4514 -2.38419e-07C38.4274 -2.38419e-07 39.3074 0.224 40.0914 0.672C40.8754 1.12 41.4994 1.728 41.9634 2.496C42.4274 3.248 42.6594 4.104 42.6594 5.064C42.6594 6.008 42.4274 6.864 41.9634 7.632C41.4994 8.4 40.8754 9.008 40.0914 9.456C39.3074 9.904 38.4274 10.128 37.4514 10.128Z" fill="white"/>
</g>
<defs>
<filter id="filter0_d_5_8" x="-0.76" y="0" width="47.4194" height="18.128" filterUnits="userSpaceOnUse" color-interpolation-filters="sRGB">
<feFlood flood-opacity="0" result="BackgroundImageFix"/>
<feColorMatrix in="SourceAlpha" type="matrix" values="0 0 0 0 0 0 0 0 0 0 0 0 0 0 0 0 0 0 127 0" result="hardAlpha"/>
<feOffset dy="4"/>
<feGaussianBlur stdDeviation="2"/>
<feComposite in2="hardAlpha" operator="out"/>
<feColorMatrix type="matrix" values="0 0 0 0 0 0 0 0 0 0 0 0 0 0 0 0 0 0 0.25 0"/>
<feBlend mode="normal" in2="BackgroundImageFix" result="effect1_dropShadow_5_8"/>
<feBlend mode="normal" in="SourceGraphic" in2="effect1_dropShadow_5_8" result="shape"/>
</filter>
</defs>
</svg>
